{
	"asset":{
		"generator":"Khronos glTF Blender I/O v4.2.70",
		"version":"2.0"
	},
	"scene":0,
	"scenes":[
		{
			"name":"Scene",
			"nodes":[
				60,
				66
			]
		}
	],
	"nodes":[
		{
			"mesh":0,
			"name":"node_0_Material.002_0"
		},
		{
			"children":[
				0
			],
			"name":"node_0",
			"scale":[
				100.00000762939453,
				100,
				100
			],
			"translation":[
				-233.75680541992188,
				0.60205078125,
				-585.0408935546875
			]
		},
		{
			"mesh":1,
			"name":"node_0.001_Material.005_0"
		},
		{
			"children":[
				2
			],
			"name":"node_0.001",
			"scale":[
				100.00000762939453,
				100,
				100
			],
			"translation":[
				248.2228546142578,
				0,
				23.13616943359375
			]
		},
		{
			"mesh":2,
			"name":"node_0.002_Material.006_0"
		},
		{
			"children":[
				4
			],
			"name":"node_0.002",
			"scale":[
				100.00000762939453,
				100,
				100
			],
			"translation":[
				352.63763427734375,
				-12.497746467590332,
				0
			]
		},
		{
			"mesh":3,
			"name":"node_0.003_Material.008_0"
		},
		{
			"children":[
				6
			],
			"name":"node_0.003",
			"scale":[
				100.00000762939453,
				100,
				100
			],
			"translation":[
				-276.70867919921875,
				2.805241107940674,
				-379.88818359375
			]
		},
		{
			"mesh":4,
			"name":"node_0.004_Material.007_0"
		},
		{
			"children":[
				8
			],
			"name":"node_0.004",
			"rotation":[
				0,
				-0.7071066498756409,
				0,
				0.70710688829422
			],
			"scale":[
				99.99999237060547,
				100,
				100
			],
			"translation":[
				538.30029296875,
				0,
				-421.666259765625
			]
		},
		{
			"mesh":5,
			"name":"node_0.005_Material.009_0"
		},
		{
			"children":[
				10
			],
			"name":"node_0.005",
			"rotation":[
				0,
				0.7071066498756409,
				0,
				0.70710688829422
			],
			"scale":[
				99.99999237060547,
				100,
				100
			],
			"translation":[
				-209.45741271972656,
				2.929861545562744,
				25.71490478515625
			]
		},
		{
			"mesh":6,
			"name":"node_0.006_Material.007_0"
		},
		{
			"children":[
				12
			],
			"name":"node_0.006",
			"scale":[
				100.00000762939453,
				100,
				100
			],
			"translation":[
				-361.67950439453125,
				0,
				-2261.36767578125
			]
		},
		{
			"mesh":7,
			"name":"node_0.007_Material.002_0"
		},
		{
			"children":[
				14
			],
			"name":"node_0.007",
			"rotation":[
				0,
				-0.7071066498756409,
				0,
				0.70710688829422
			],
			"scale":[
				99.99999237060547,
				100,
				100
			],
			"translation":[
				301.771240234375,
				-2.4899773597717285,
				-1285.112548828125
			]
		},
		{
			"mesh":8,
			"name":"node_0.008_Material.011_0"
		},
		{
			"children":[
				16
			],
			"name":"node_0.008",
			"scale":[
				100.00000762939453,
				100,
				100
			],
			"translation":[
				361.3014221191406,
				0,
				-2023.695556640625
			]
		},
		{
			"mesh":9,
			"name":"node_0.009_Material.011_0"
		},
		{
			"children":[
				18
			],
			"name":"node_0.009",
			"rotation":[
				0,
				-0.3613469898700714,
				0,
				0.9324313998222351
			],
			"scale":[
				100,
				100,
				100
			],
			"translation":[
				-268.1759033203125,
				0,
				-1221.12939453125
			]
		},
		{
			"mesh":10,
			"name":"node_0.010_Material.009_0"
		},
		{
			"children":[
				20
			],
			"name":"node_0.010",
			"rotation":[
				0,
				1,
				0,
				7.549789415861596e-08
			],
			"scale":[
				100.00000762939453,
				100,
				100
			],
			"translation":[
				260.740234375,
				3.5677857398986816,
				-419.2935791015625
			]
		},
		{
			"mesh":11,
			"name":"node_0.011_Material.013_0"
		},
		{
			"children":[
				22
			],
			"name":"node_0.011",
			"rotation":[
				0,
				0.7071066498756409,
				0,
				0.70710688829422
			],
			"scale":[
				99.99999237060547,
				100,
				100
			],
			"translation":[
				-733.7388305664062,
				6.469992160797119,
				-464.28668212890625
			]
		},
		{
			"mesh":12,
			"name":"node_0.012_Material.013_0",
			"translation":[
				2.3508025606133742e-06,
				0,
				0
			]
		},
		{
			"children":[
				24
			],
			"name":"node_0.012",
			"rotation":[
				0,
				-0.7071066498756409,
				0,
				0.70710688829422
			],
			"scale":[
				99.99999237060547,
				100,
				100
			],
			"translation":[
				251.90919494628906,
				6.469992160797119,
				-2716.442626953125
			]
		},
		{
			"mesh":13,
			"name":"node_0.013_Material.014_0"
		},
		{
			"children":[
				26
			],
			"name":"node_0.013",
			"scale":[
				100.00000762939453,
				100,
				100
			],
			"translation":[
				-659.022216796875,
				0,
				-970.6251220703125
			]
		},
		{
			"mesh":14,
			"name":"node_0.014_Material.011_0"
		},
		{
			"children":[
				28
			],
			"name":"node_0.014",
			"rotation":[
				0,
				0.020939607173204422,
				0,
				0.9997807741165161
			],
			"scale":[
				99.99999237060547,
				100,
				99.99998474121094
			],
			"translation":[
				-921.07958984375,
				0,
				-1629.4532470703125
			]
		},
		{
			"mesh":15,
			"name":"node_0.015_Material.015_0"
		},
		{
			"children":[
				30
			],
			"name":"node_0.015",
			"scale":[
				100.00000762939453,
				100,
				100
			],
			"translation":[
				-141.63522338867188,
				0,
				-340.2698974609375
			]
		},
		{
			"mesh":16,
			"name":"node_0.016_Material.006_0",
			"translation":[
				-33.11359786987305,
				0.1768975406885147,
				1.4394999742507935
			]
		},
		{
			"children":[
				32
			],
			"name":"node_0.016",
			"rotation":[
				0,
				0.7095254063606262,
				0,
				0.7046798467636108
			],
			"scale":[
				99.99999237060547,
				100,
				100.00000762939453
			],
			"translation":[
				-173.6440887451172,
				-12.370912551879883,
				-2890.961669921875
			]
		},
		{
			"mesh":17,
			"name":"node_0.017_Material.014_0"
		},
		{
			"children":[
				34
			],
			"name":"node_0.017",
			"rotation":[
				0,
				0.9499978423118591,
				0,
				0.31225642561912537
			],
			"scale":[
				100,
				100,
				100.00000762939453
			],
			"translation":[
				222.92201232910156,
				0,
				-3296.688232421875
			]
		},
		{
			"mesh":18,
			"name":"node_0.018_Material.013_0"
		},
		{
			"children":[
				36
			],
			"name":"node_0.018",
			"scale":[
				100.00000762939453,
				100,
				100
			],
			"translation":[
				630.8676147460938,
				6.469992160797119,
				-1646.2291259765625
			]
		},
		{
			"mesh":19,
			"name":"node_0.019_Material.011_0"
		},
		{
			"children":[
				38
			],
			"name":"node_0.019",
			"rotation":[
				0,
				0.7071066498756409,
				0,
				0.70710688829422
			],
			"scale":[
				99.99999237060547,
				100,
				100
			],
			"translation":[
				434.618896484375,
				0,
				-1008.4000854492188
			]
		},
		{
			"mesh":20,
			"name":"node_0.020_Material.009_0"
		},
		{
			"children":[
				40
			],
			"name":"node_0.020",
			"rotation":[
				0,
				0.7071066498756409,
				0,
				0.70710688829422
			],
			"scale":[
				99.99999237060547,
				100,
				100
			],
			"translation":[
				-283.2710266113281,
				2.929861545562744,
				-1639.705322265625
			]
		},
		{
			"mesh":21,
			"name":"node_0.021_Material.017_0"
		},
		{
			"children":[
				42
			],
			"name":"node_0.021",
			"rotation":[
				0,
				0.722776472568512,
				0,
				0.6910818815231323
			],
			"scale":[
				100,
				100,
				100
			],
			"translation":[
				-3.814697265625e-06,
				0,
				-267.08935546875
			]
		},
		{
			"mesh":22,
			"name":"node_0.022_Material.018_0"
		},
		{
			"children":[
				44
			],
			"name":"node_0.022",
			"scale":[
				100.00000762939453,
				100,
				100
			],
			"translation":[
				-836.8530883789062,
				-40.28791427612305,
				-95.27252197265625
			]
		},
		{
			"mesh":23,
			"name":"node_0.023_Material.020_0"
		},
		{
			"children":[
				46
			],
			"name":"node_0.023",
			"scale":[
				100.00000762939453,
				100,
				100
			],
			"translation":[
				70.71185302734375,
				0,
				-192.3017578125
			]
		},
		{
			"mesh":24,
			"name":"node_0.024_Material.020_0"
		},
		{
			"children":[
				48
			],
			"name":"node_0.024",
			"rotation":[
				0,
				-0.4944639503955841,
				0,
				0.8691982626914978
			],
			"scale":[
				100,
				100,
				99.99999237060547
			],
			"translation":[
				13.590471267700195,
				0,
				-822.5191040039062
			]
		},
		{
			"mesh":25,
			"name":"node_0.025_Material.021_0"
		},
		{
			"children":[
				50
			],
			"name":"node_0.025",
			"rotation":[
				0,
				0.4231671690940857,
				0,
				0.9060516357421875
			],
			"scale":[
				100.00000762939453,
				100,
				100.00000762939453
			],
			"translation":[
				80.337890625,
				0,
				-1208.1585693359375
			]
		},
		{
			"mesh":26,
			"name":"node_0.026_Material.021_0"
		},
		{
			"children":[
				52
			],
			"name":"node_0.026",
			"rotation":[
				0,
				0.0016107432311400771,
				0,
				1
			],
			"scale":[
				100,
				100,
				100
			],
			"translation":[
				5.718503952026367,
				0,
				50.995361328125
			]
		},
		{
			"mesh":27,
			"name":"Plane_Material.001_0",
			"scale":[
				1,
				1,
				0.9128777384757996
			],
			"translation":[
				-0.20937347412109375,
				0,
				-0.018972404301166534
			]
		},
		{
			"children":[
				54
			],
			"name":"Plane",
			"rotation":[
				-0.70710688829422,
				0,
				0,
				0.7071066498756409
			],
			"scale":[
				100.00000762939453,
				99.99999237060547,
				99.99999237060547
			],
			"translation":[
				-3.814697265625e-06,
				-0.9399385452270508,
				0
			]
		},
		{
			"mesh":28,
			"name":"Plane.001_Material.019_0"
		},
		{
			"children":[
				56
			],
			"name":"Plane.001",
			"rotation":[
				-0.70710688829422,
				0,
				0,
				0.7071066498756409
			],
			"scale":[
				100.00000762939453,
				99.99999237060547,
				99.99999237060547
			],
			"translation":[
				-143.41603088378906,
				6.624692440032959,
				-483.0812072753906
			]
		},
		{
			"children":[
				1,
				3,
				5,
				7,
				9,
				11,
				13,
				15,
				17,
				19,
				21,
				23,
				25,
				27,
				29,
				31,
				33,
				35,
				37,
				39,
				41,
				43,
				45,
				47,
				49,
				51,
				53,
				55,
				57
			],
			"name":"RootNode",
			"translation":[
				-3.814697265625e-06,
				0,
				0
			]
		},
		{
			"children":[
				58
			],
			"name":"b333a73a2c7449cfb0c9b433f501054e.fbx",
			"rotation":[
				0.70710688829422,
				0,
				0,
				0.7071066498756409
			],
			"scale":[
				0.009999999776482582,
				0.010000001639127731,
				0.010000001639127731
			]
		},
		{
			"children":[
				59
			],
			"name":"Sketchfab_model",
			"rotation":[
				-0.70710688829422,
				0,
				0,
				0.7071066498756409
			],
			"scale":[
				3,
				3.000000476837158,
				3.000000476837158
			],
			"translation":[
				-0.9978203177452087,
				0.18476390838623047,
				23.859012603759766
			]
		},
		{
			"mesh":29,
			"name":"Boxing Ring_Boxing Ring_0"
		},
		{
			"mesh":30,
			"name":"Boxing Ring_Boxing Ring_0.001"
		},
		{
			"children":[
				61,
				62
			],
			"name":"Boxing Ring",
			"rotation":[
				-0.70710688829422,
				0,
				0,
				0.7071066498756409
			],
			"scale":[
				100.00000762939453,
				99.99999237060547,
				100
			],
			"translation":[
				-0.08285247534513474,
				-173.45523071289062,
				0
			]
		},
		{
			"children":[
				63
			],
			"name":"RootNode.001"
		},
		{
			"children":[
				64
			],
			"name":"Boxing Ring.fbx",
			"rotation":[
				0.70710688829422,
				0,
				0,
				0.7071066498756409
			],
			"scale":[
				0.009999999776482582,
				0.010000000707805157,
				0.010000001639127731
			]
		},
		{
			"children":[
				65
			],
			"name":"Sketchfab_model.001",
			"rotation":[
				-0.6309230327606201,
				0.3192744851112366,
				0.31927454471588135,
				0.6309229135513306
			],
			"translation":[
				-0.0017274320125579834,
				0.08015251159667969,
				-0.17850852012634277
			]
		}
	],
	"materials":[
		{
			"doubleSided":true,
			"name":"Material.002",
			"normalTexture":{
				"index":0
			},
			"pbrMetallicRoughness":{
				"baseColorTexture":{
					"index":1
				},
				"metallicFactor":0
			}
		},
		{
			"doubleSided":true,
			"name":"Material.005",
			"normalTexture":{
				"index":2
			},
			"pbrMetallicRoughness":{
				"baseColorTexture":{
					"index":3
				},
				"metallicFactor":0
			}
		},
		{
			"doubleSided":true,
			"name":"Material.006",
			"normalTexture":{
				"index":4
			},
			"pbrMetallicRoughness":{
				"baseColorTexture":{
					"index":5
				},
				"metallicFactor":0
			}
		},
		{
			"doubleSided":true,
			"name":"Material.008",
			"normalTexture":{
				"index":6
			},
			"pbrMetallicRoughness":{
				"baseColorTexture":{
					"index":7
				},
				"metallicFactor":0
			}
		},
		{
			"doubleSided":true,
			"name":"Material.007",
			"normalTexture":{
				"index":8
			},
			"pbrMetallicRoughness":{
				"baseColorTexture":{
					"index":9
				},
				"metallicFactor":0
			}
		},
		{
			"doubleSided":true,
			"name":"Material.009",
			"normalTexture":{
				"index":10
			},
			"pbrMetallicRoughness":{
				"baseColorTexture":{
					"index":11
				},
				"metallicFactor":0
			}
		},
		{
			"doubleSided":true,
			"name":"Material.011",
			"normalTexture":{
				"index":12
			},
			"pbrMetallicRoughness":{
				"baseColorTexture":{
					"index":13
				},
				"metallicFactor":0
			}
		},
		{
			"doubleSided":true,
			"name":"Material.013",
			"normalTexture":{
				"index":14
			},
			"pbrMetallicRoughness":{
				"baseColorTexture":{
					"index":15
				},
				"metallicFactor":0
			}
		},
		{
			"doubleSided":true,
			"name":"Material.014",
			"normalTexture":{
				"index":16
			},
			"pbrMetallicRoughness":{
				"baseColorTexture":{
					"index":17
				},
				"metallicFactor":0
			}
		},
		{
			"doubleSided":true,
			"name":"Material.015",
			"normalTexture":{
				"index":18
			},
			"pbrMetallicRoughness":{
				"baseColorTexture":{
					"index":19
				},
				"metallicFactor":0
			}
		},
		{
			"doubleSided":true,
			"name":"Material.017",
			"normalTexture":{
				"index":20
			},
			"pbrMetallicRoughness":{
				"baseColorTexture":{
					"index":21
				},
				"metallicFactor":0
			}
		},
		{
			"doubleSided":true,
			"name":"Material.018",
			"normalTexture":{
				"index":22
			},
			"pbrMetallicRoughness":{
				"baseColorTexture":{
					"index":23
				},
				"metallicFactor":0
			}
		},
		{
			"doubleSided":true,
			"name":"Material.020",
			"normalTexture":{
				"index":24
			},
			"pbrMetallicRoughness":{
				"baseColorTexture":{
					"index":25
				},
				"metallicFactor":0
			}
		},
		{
			"doubleSided":true,
			"name":"Material.021",
			"normalTexture":{
				"index":26
			},
			"pbrMetallicRoughness":{
				"baseColorTexture":{
					"index":27
				},
				"metallicFactor":0,
				"roughnessFactor":0.18188662827014923
			}
		},
		{
			"doubleSided":true,
			"name":"Material.001",
			"pbrMetallicRoughness":{
				"baseColorTexture":{
					"index":28
				},
				"metallicFactor":0,
				"roughnessFactor":0.16366758942604065
			}
		},
		{
			"doubleSided":true,
			"name":"Material.019",
			"normalTexture":{
				"index":29
			},
			"pbrMetallicRoughness":{
				"baseColorTexture":{
					"index":30
				},
				"metallicFactor":0,
				"roughnessFactor":0.8211145401000977
			}
		},
		{
			"doubleSided":true,
			"name":"Boxing_Ring",
			"normalTexture":{
				"index":31
			},
			"pbrMetallicRoughness":{
				"baseColorTexture":{
					"index":32
				},
				"metallicRoughnessTexture":{
					"index":33
				}
			}
		}
	],
	"meshes":[
		{
			"name":"node_0_Material.002_0",
			"primitives":[
				{
					"attributes":{
						"POSITION":0,
						"NORMAL":1,
						"TEXCOORD_0":2,
						"TEXCOORD_1":3,
						"TEXCOORD_2":4
					},
					"indices":5,
					"material":0
				}
			]
		},
		{
			"name":"node_0.001_Material.005_0",
			"primitives":[
				{
					"attributes":{
						"POSITION":6,
						"NORMAL":7,
						"TEXCOORD_0":8,
						"TEXCOORD_1":9,
						"TEXCOORD_2":10
					},
					"indices":11,
					"material":1
				}
			]
		},
		{
			"name":"node_0.002_Material.006_0",
			"primitives":[
				{
					"attributes":{
						"POSITION":12,
						"NORMAL":13,
						"TEXCOORD_0":14,
						"TEXCOORD_1":15,
						"TEXCOORD_2":16
					},
					"indices":17,
					"material":2
				}
			]
		},
		{
			"name":"node_0.003_Material.008_0",
			"primitives":[
				{
					"attributes":{
						"POSITION":18,
						"NORMAL":19,
						"TEXCOORD_0":20,
						"TEXCOORD_1":21,
						"TEXCOORD_2":22
					},
					"indices":23,
					"material":3
				}
			]
		},
		{
			"name":"node_0.004_Material.007_0",
			"primitives":[
				{
					"attributes":{
						"POSITION":24,
						"NORMAL":25,
						"TEXCOORD_0":26,
						"TEXCOORD_1":27,
						"TEXCOORD_2":28
					},
					"indices":29,
					"material":4
				}
			]
		},
		{
			"name":"node_0.005_Material.009_0",
			"primitives":[
				{
					"attributes":{
						"POSITION":30,
						"NORMAL":31,
						"TEXCOORD_0":32,
						"TEXCOORD_1":33,
						"TEXCOORD_2":34
					},
					"indices":35,
					"material":5
				}
			]
		},
		{
			"name":"node_0.006_Material.007_0",
			"primitives":[
				{
					"attributes":{
						"POSITION":36,
						"NORMAL":37,
						"TEXCOORD_0":38,
						"TEXCOORD_1":39,
						"TEXCOORD_2":40
					},
					"indices":41,
					"material":4
				}
			]
		},
		{
			"name":"node_0.007_Material.002_0",
			"primitives":[
				{
					"attributes":{
						"POSITION":42,
						"NORMAL":43,
						"TEXCOORD_0":44,
						"TEXCOORD_1":45,
						"TEXCOORD_2":46
					},
					"indices":5,
					"material":0
				}
			]
		},
		{
			"name":"node_0.008_Material.011_0",
			"primitives":[
				{
					"attributes":{
						"POSITION":47,
						"NORMAL":48,
						"TEXCOORD_0":49,
						"TEXCOORD_1":50,
						"TEXCOORD_2":51
					},
					"indices":52,
					"material":6
				}
			]
		},
		{
			"name":"node_0.009_Material.011_0",
			"primitives":[
				{
					"attributes":{
						"POSITION":53,
						"NORMAL":54,
						"TEXCOORD_0":55,
						"TEXCOORD_1":56,
						"TEXCOORD_2":57
					},
					"indices":52,
					"material":6
				}
			]
		},
		{
			"name":"node_0.010_Material.009_0",
			"primitives":[
				{
					"attributes":{
						"POSITION":58,
						"NORMAL":59,
						"TEXCOORD_0":60,
						"TEXCOORD_1":61,
						"TEXCOORD_2":62
					},
					"indices":35,
					"material":5
				}
			]
		},
		{
			"name":"node_0.011_Material.013_0",
			"primitives":[
				{
					"attributes":{
						"POSITION":63,
						"NORMAL":64,
						"TEXCOORD_0":65,
						"TEXCOORD_1":66,
						"TEXCOORD_2":67
					},
					"indices":68,
					"material":7
				}
			]
		},
		{
			"name":"node_0.012_Material.013_0",
			"primitives":[
				{
					"attributes":{
						"POSITION":69,
						"NORMAL":70,
						"TEXCOORD_0":71,
						"TEXCOORD_1":72,
						"TEXCOORD_2":73
					},
					"indices":68,
					"material":7
				}
			]
		},
		{
			"name":"node_0.013_Material.014_0",
			"primitives":[
				{
					"attributes":{
						"POSITION":74,
						"NORMAL":75,
						"TEXCOORD_0":76,
						"TEXCOORD_1":77,
						"TEXCOORD_2":78
					},
					"indices":79,
					"material":8
				}
			]
		},
		{
			"name":"node_0.014_Material.011_0",
			"primitives":[
				{
					"attributes":{
						"POSITION":80,
						"NORMAL":81,
						"TEXCOORD_0":82,
						"TEXCOORD_1":83,
						"TEXCOORD_2":84
					},
					"indices":52,
					"material":6
				}
			]
		},
		{
			"name":"node_0.015_Material.015_0",
			"primitives":[
				{
					"attributes":{
						"POSITION":85,
						"NORMAL":86,
						"TEXCOORD_0":87,
						"TEXCOORD_1":88,
						"TEXCOORD_2":89
					},
					"indices":90,
					"material":9
				}
			]
		},
		{
			"name":"node_0.016_Material.006_0",
			"primitives":[
				{
					"attributes":{
						"POSITION":91,
						"NORMAL":92,
						"TEXCOORD_0":93,
						"TEXCOORD_1":94,
						"TEXCOORD_2":95
					},
					"indices":96,
					"material":2
				}
			]
		},
		{
			"name":"node_0.017_Material.014_0",
			"primitives":[
				{
					"attributes":{
						"POSITION":97,
						"NORMAL":98,
						"TEXCOORD_0":99,
						"TEXCOORD_1":100,
						"TEXCOORD_2":101
					},
					"indices":79,
					"material":8
				}
			]
		},
		{
			"name":"node_0.018_Material.013_0",
			"primitives":[
				{
					"attributes":{
						"POSITION":102,
						"NORMAL":103,
						"TEXCOORD_0":104,
						"TEXCOORD_1":105,
						"TEXCOORD_2":106
					},
					"indices":68,
					"material":7
				}
			]
		},
		{
			"name":"node_0.019_Material.011_0",
			"primitives":[
				{
					"attributes":{
						"POSITION":107,
						"NORMAL":108,
						"TEXCOORD_0":109,
						"TEXCOORD_1":110,
						"TEXCOORD_2":111
					},
					"indices":52,
					"material":6
				}
			]
		},
		{
			"name":"node_0.020_Material.009_0",
			"primitives":[
				{
					"attributes":{
						"POSITION":112,
						"NORMAL":113,
						"TEXCOORD_0":114,
						"TEXCOORD_1":115,
						"TEXCOORD_2":116
					},
					"indices":35,
					"material":5
				}
			]
		},
		{
			"name":"node_0.021_Material.017_0",
			"primitives":[
				{
					"attributes":{
						"POSITION":117,
						"NORMAL":118,
						"TEXCOORD_0":119,
						"TEXCOORD_1":120,
						"TEXCOORD_2":121
					},
					"indices":122,
					"material":10
				}
			]
		},
		{
			"name":"node_0.022_Material.018_0",
			"primitives":[
				{
					"attributes":{
						"POSITION":123,
						"NORMAL":124,
						"TEXCOORD_0":125,
						"TEXCOORD_1":126,
						"TEXCOORD_2":127
					},
					"indices":128,
					"material":11
				}
			]
		},
		{
			"name":"node_0.023_Material.020_0",
			"primitives":[
				{
					"attributes":{
						"POSITION":129,
						"NORMAL":130,
						"TEXCOORD_0":131,
						"TEXCOORD_1":132,
						"TEXCOORD_2":133
					},
					"indices":134,
					"material":12
				}
			]
		},
		{
			"name":"node_0.024_Material.020_0",
			"primitives":[
				{
					"attributes":{
						"POSITION":135,
						"NORMAL":136,
						"TEXCOORD_0":137,
						"TEXCOORD_1":138,
						"TEXCOORD_2":139
					},
					"indices":134,
					"material":12
				}
			]
		},
		{
			"name":"node_0.025_Material.021_0",
			"primitives":[
				{
					"attributes":{
						"POSITION":140,
						"NORMAL":141,
						"TEXCOORD_0":142,
						"TEXCOORD_1":143,
						"TEXCOORD_2":144
					},
					"indices":145,
					"material":13
				}
			]
		},
		{
			"name":"node_0.026_Material.021_0",
			"primitives":[
				{
					"attributes":{
						"POSITION":146,
						"NORMAL":147,
						"TEXCOORD_0":148,
						"TEXCOORD_1":149,
						"TEXCOORD_2":150
					},
					"indices":151,
					"material":13
				}
			]
		},
		{
			"name":"Plane_Material.001_0",
			"primitives":[
				{
					"attributes":{
						"POSITION":152,
						"NORMAL":153,
						"TEXCOORD_0":154
					},
					"indices":155,
					"material":14
				}
			]
		},
		{
			"name":"Plane.001_Material.019_0",
			"primitives":[
				{
					"attributes":{
						"POSITION":156,
						"NORMAL":157,
						"TEXCOORD_0":158,
						"TEXCOORD_1":159
					},
					"indices":160,
					"material":15
				}
			]
		},
		{
			"name":"Boxing Ring_Boxing Ring_0",
			"primitives":[
				{
					"attributes":{
						"POSITION":161,
						"NORMAL":162,
						"TEXCOORD_0":163,
						"TEXCOORD_1":164,
						"TEXCOORD_2":165
					},
					"indices":166,
					"material":16
				}
			]
		},
		{
			"name":"Boxing Ring_Boxing Ring_0.001",
			"primitives":[
				{
					"attributes":{
						"POSITION":167,
						"NORMAL":168,
						"TEXCOORD_0":169,
						"TEXCOORD_1":170,
						"TEXCOORD_2":171
					},
					"indices":172,
					"material":16
				}
			]
		}
	],
	"textures":[
		{
			"sampler":0,
			"source":0
		},
		{
			"sampler":0,
			"source":1
		},
		{
			"sampler":0,
			"source":2
		},
		{
			"sampler":0,
			"source":3
		},
		{
			"sampler":0,
			"source":4
		},
		{
			"sampler":0,
			"source":5
		},
		{
			"sampler":0,
			"source":6
		},
		{
			"sampler":0,
			"source":7
		},
		{
			"sampler":0,
			"source":8
		},
		{
			"sampler":0,
			"source":9
		},
		{
			"sampler":0,
			"source":10
		},
		{
			"sampler":0,
			"source":11
		},
		{
			"sampler":0,
			"source":12
		},
		{
			"sampler":0,
			"source":13
		},
		{
			"sampler":0,
			"source":14
		},
		{
			"sampler":0,
			"source":15
		},
		{
			"sampler":0,
			"source":16
		},
		{
			"sampler":0,
			"source":17
		},
		{
			"sampler":0,
			"source":18
		},
		{
			"sampler":0,
			"source":19
		},
		{
			"sampler":0,
			"source":20
		},
		{
			"sampler":0,
			"source":21
		},
		{
			"sampler":0,
			"source":22
		},
		{
			"sampler":0,
			"source":23
		},
		{
			"sampler":0,
			"source":24
		},
		{
			"sampler":0,
			"source":25
		},
		{
			"sampler":0,
			"source":26
		},
		{
			"sampler":0,
			"source":27
		},
		{
			"sampler":0,
			"source":28
		},
		{
			"sampler":0,
			"source":29
		},
		{
			"sampler":0,
			"source":30
		},
		{
			"sampler":0,
			"source":31
		},
		{
			"sampler":0,
			"source":32
		},
		{
			"sampler":0,
			"source":33
		}
	],
	"images":[
		{
			"mimeType":"image/png",
			"name":"Material.002_normal",
			"uri":"textures/Material_002_normal.png"
		},
		{
			"mimeType":"image/png",
			"name":"Material.002_baseColor",
			"uri":"textures/Material_002_baseColor.png"
		},
		{
			"mimeType":"image/png",
			"name":"Material.005_normal",
			"uri":"textures/Material_005_normal.png"
		},
		{
			"mimeType":"image/png",
			"name":"Material.005_baseColor",
			"uri":"textures/Material_005_baseColor.png"
		},
		{
			"mimeType":"image/png",
			"name":"Material.006_normal",
			"uri":"textures/Material_006_normal.png"
		},
		{
			"mimeType":"image/png",
			"name":"Material.006_baseColor",
			"uri":"textures/Material_006_baseColor.png"
		},
		{
			"mimeType":"image/png",
			"name":"Material.008_normal",
			"uri":"textures/Material_008_normal.png"
		},
		{
			"mimeType":"image/png",
			"name":"Material.008_baseColor",
			"uri":"textures/Material_008_baseColor.png"
		},
		{
			"mimeType":"image/png",
			"name":"Material.007_normal",
			"uri":"textures/Material_007_normal.png"
		},
		{
			"mimeType":"image/png",
			"name":"Material.007_baseColor",
			"uri":"textures/Material_007_baseColor.png"
		},
		{
			"mimeType":"image/png",
			"name":"Material.009_normal",
			"uri":"textures/Material_009_normal.png"
		},
		{
			"mimeType":"image/png",
			"name":"Material.009_baseColor",
			"uri":"textures/Material_009_baseColor.png"
		},
		{
			"mimeType":"image/png",
			"name":"Material.011_normal",
			"uri":"textures/Material_011_normal.png"
		},
		{
			"mimeType":"image/png",
			"name":"Material.011_baseColor",
			"uri":"textures/Material_011_baseColor.png"
		},
		{
			"mimeType":"image/png",
			"name":"Material.013_normal",
			"uri":"textures/Material_013_normal.png"
		},
		{
			"mimeType":"image/png",
			"name":"Material.013_baseColor",
			"uri":"textures/Material_013_baseColor.png"
		},
		{
			"mimeType":"image/png",
			"name":"Material.014_normal",
			"uri":"textures/Material_014_normal.png"
		},
		{
			"mimeType":"image/png",
			"name":"Material.014_baseColor",
			"uri":"textures/Material_014_baseColor.png"
		},
		{
			"mimeType":"image/png",
			"name":"Material.015_normal",
			"uri":"textures/Material_015_normal.png"
		},
		{
			"mimeType":"image/png",
			"name":"Material.015_baseColor",
			"uri":"textures/Material_015_baseColor.png"
		},
		{
			"mimeType":"image/png",
			"name":"Material.017_normal",
			"uri":"textures/Material_017_normal.png"
		},
		{
			"mimeType":"image/png",
			"name":"Material.017_baseColor",
			"uri":"textures/Material_017_baseColor.png"
		},
		{
			"mimeType":"image/png",
			"name":"Material.018_normal",
			"uri":"textures/Material_018_normal.png"
		},
		{
			"mimeType":"image/png",
			"name":"Material.018_baseColor",
			"uri":"textures/Material_018_baseColor.png"
		},
		{
			"mimeType":"image/png",
			"name":"Material.020_normal",
			"uri":"textures/Material_020_normal.png"
		},
		{
			"mimeType":"image/png",
			"name":"Material.020_baseColor",
			"uri":"textures/Material_020_baseColor.png"
		},
		{
			"mimeType":"image/png",
			"name":"Material.021_normal",
			"uri":"textures/Material_021_normal.png"
		},
		{
			"mimeType":"image/png",
			"name":"Material.021_baseColor",
			"uri":"textures/Material_021_baseColor.png"
		},
		{
			"mimeType":"image/jpeg",
			"name":"Material.001_baseColor",
			"uri":"textures/Material_001_baseColor.jpg"
		},
		{
			"mimeType":"image/png",
			"name":"Material.019_normal",
			"uri":"textures/Material_019_normal.png"
		},
		{
			"mimeType":"image/jpeg",
			"name":"Material.019_baseColor",
			"uri":"textures/Material_019_baseColor.jpg"
		},
		{
			"mimeType":"image/png",
			"name":"Boxing_Ring_normal",
			"uri":"textures/Boxing_Ring_normal.png"
		},
		{
			"mimeType":"image/png",
			"name":"Boxing_Ring_baseColor",
			"uri":"textures/Boxing_Ring_baseColor.png"
		},
		{
			"mimeType":"image/png",
			"name":"Boxing_Ring_metallicRoughness",
			"uri":"textures/Boxing_Ring_metallicRoughness.png"
		}
	],
	"accessors":[
		{
			"bufferView":0,
			"componentType":5126,
			"count":35016,
			"max":[
				2.378256320953369,
				5.534693717956543,
				2.035978078842163
			],
			"min":[
				-2.0847644805908203,
				0.0011032158508896828,
				-1.9816416501998901
			],
			"type":"VEC3"
		},
		{
			"bufferView":1,
			"componentType":5126,
			"count":35016,
			"type":"VEC3"
		},
		{
			"bufferView":2,
			"componentType":5126,
			"count":35016,
			"type":"VEC2"
		},
		{
			"bufferView":3,
			"componentType":5126,
			"count":35016,
			"type":"VEC2"
		},
		{
			"bufferView":4,
			"componentType":5126,
			"count":35016,
			"type":"VEC2"
		},
		{
			"bufferView":5,
			"componentType":5123,
			"count":35016,
			"type":"SCALAR"
		},
		{
			"bufferView":6,
			"componentType":5126,
			"count":24612,
			"max":[
				1.0159728527069092,
				1.8284382820129395,
				0.7870519757270813
			],
			"min":[
				-1.1502046585083008,
				0.0017027246067300439,
				-0.6238458156585693
			],
			"type":"VEC3"
		},
		{
			"bufferView":7,
			"componentType":5126,
			"count":24612,
			"type":"VEC3"
		},
		{
			"bufferView":8,
			"componentType":5126,
			"count":24612,
			"type":"VEC2"
		},
		{
			"bufferView":9,
			"componentType":5126,
			"count":24612,
			"type":"VEC2"
		},
		{
			"bufferView":10,
			"componentType":5126,
			"count":24612,
			"type":"VEC2"
		},
		{
			"bufferView":11,
			"componentType":5123,
			"count":25830,
			"type":"SCALAR"
		},
		{
			"bufferView":12,
			"componentType":5126,
			"count":29239,
			"max":[
				1.750900149345398,
				5.297167778015137,
				2.012237071990967
			],
			"min":[
				-2.4640471935272217,
				-0.004519693553447723,
				-2.3616390228271484
			],
			"type":"VEC3"
		},
		{
			"bufferView":13,
			"componentType":5126,
			"count":29239,
			"type":"VEC3"
		},
		{
			"bufferView":14,
			"componentType":5126,
			"count":29239,
			"type":"VEC2"
		},
		{
			"bufferView":15,
			"componentType":5126,
			"count":29239,
			"type":"VEC2"
		},
		{
			"bufferView":16,
			"componentType":5126,
			"count":29239,
			"type":"VEC2"
		},
		{
			"bufferView":17,
			"componentType":5123,
			"count":29994,
			"type":"SCALAR"
		},
		{
			"bufferView":18,
			"componentType":5126,
			"count":47160,
			"max":[
				2.1319363117218018,
				2.3644373416900635,
				1.6312270164489746
			],
			"min":[
				-2.048834800720215,
				-0.0001544650731375441,
				-1.6738314628601074
			],
			"type":"VEC3"
		},
		{
			"bufferView":19,
			"componentType":5126,
			"count":47160,
			"type":"VEC3"
		},
		{
			"bufferView":20,
			"componentType":5126,
			"count":47160,
			"type":"VEC2"
		},
		{
			"bufferView":21,
			"componentType":5126,
			"count":47160,
			"type":"VEC2"
		},
		{
			"bufferView":22,
			"componentType":5126,
			"count":47160,
			"type":"VEC2"
		},
		{
			"bufferView":23,
			"componentType":5123,
			"count":49224,
			"type":"SCALAR"
		},
		{
			"bufferView":24,
			"componentType":5126,
			"count":39373,
			"max":[
				2.3149285316467285,
				9.539124488830566,
				3.2812023162841797
			],
			"min":[
				-3.2713332176208496,
				0.0023995840456336737,
				-3.479763984680176
			],
			"type":"VEC3"
		},
		{
			"bufferView":25,
			"componentType":5126,
			"count":39373,
			"type":"VEC3"
		},
		{
			"bufferView":26,
			"componentType":5126,
			"count":39373,
			"type":"VEC2"
		},
		{
			"bufferView":27,
			"componentType":5126,
			"count":39373,
			"type":"VEC2"
		},
		{
			"bufferView":28,
			"componentType":5126,
			"count":39373,
			"type":"VEC2"
		},
		{
			"bufferView":29,
			"componentType":5123,
			"count":87096,
			"type":"SCALAR"
		},
		{
			"bufferView":30,
			"componentType":5126,
			"count":40190,
			"max":[
				1.2113685607910156,
				1.4362577199935913,
				1.6413488388061523
			],
			"min":[
				-1.1923973560333252,
				0,
				-1.8445188999176025
			],
			"type":"VEC3"
		},
		{
			"bufferView":31,
			"componentType":5126,
			"count":40190,
			"type":"VEC3"
		},
		{
			"bufferView":32,
			"componentType":5126,
			"count":40190,
			"type":"VEC2"
		},
		{
			"bufferView":33,
			"componentType":5126,
			"count":40190,
			"type":"VEC2"
		},
		{
			"bufferView":34,
			"componentType":5126,
			"count":40190,
			"type":"VEC2"
		},
		{
			"bufferView":35,
			"componentType":5123,
			"count":149682,
			"type":"SCALAR"
		},
		{
			"bufferView":36,
			"componentType":5126,
			"count":39379,
			"max":[
				2.7462410926818848,
				11.316433906555176,
				3.8925490379333496
			],
			"min":[
				-3.880841016769409,
				0.00284666963852942,
				-4.128106117248535
			],
			"type":"VEC3"
		},
		{
			"bufferView":37,
			"componentType":5126,
			"count":39379,
			"type":"VEC3"
		},
		{
			"bufferView":38,
			"componentType":5126,
			"count":39379,
			"type":"VEC2"
		},
		{
			"bufferView":39,
			"componentType":5126,
			"count":39379,
			"type":"VEC2"
		},
		{
			"bufferView":40,
			"componentType":5126,
			"count":39379,
			"type":"VEC2"
		},
		{
			"bufferView":41,
			"componentType":5123,
			"count":87096,
			"type":"SCALAR"
		},
		{
			"bufferView":42,
			"componentType":5126,
			"count":35016,
			"max":[
				2.378256320953369,
				5.534693717956543,
				2.035978078842163
			],
			"min":[
				-2.0847644805908203,
				0.0011032158508896828,
				-1.9816416501998901
			],
			"type":"VEC3"
		},
		{
			"bufferView":43,
			"componentType":5126,
			"count":35016,
			"type":"VEC3"
		},
		{
			"bufferView":44,
			"componentType":5126,
			"count":35016,
			"type":"VEC2"
		},
		{
			"bufferView":45,
			"componentType":5126,
			"count":35016,
			"type":"VEC2"
		},
		{
			"bufferView":46,
			"componentType":5126,
			"count":35016,
			"type":"VEC2"
		},
		{
			"bufferView":47,
			"componentType":5126,
			"count":30435,
			"max":[
				1.957209825515747,
				6.833019256591797,
				1.2713093757629395
			],
			"min":[
				-1.7762260437011719,
				-0.0030071630608290434,
				-1.4570393562316895
			],
			"type":"VEC3"
		},
		{
			"bufferView":48,
			"componentType":5126,
			"count":30435,
			"type":"VEC3"
		},
		{
			"bufferView":49,
			"componentType":5126,
			"count":30435,
			"type":"VEC2"
		},
		{
			"bufferView":50,
			"componentType":5126,
			"count":30435,
			"type":"VEC2"
		},
		{
			"bufferView":51,
			"componentType":5126,
			"count":30435,
			"type":"VEC2"
		},
		{
			"bufferView":52,
			"componentType":5123,
			"count":31638,
			"type":"SCALAR"
		},
		{
			"bufferView":53,
			"componentType":5126,
			"count":30435,
			"max":[
				1.957209825515747,
				6.833019256591797,
				1.2713093757629395
			],
			"min":[
				-1.7762260437011719,
				-0.0030071630608290434,
				-1.4570393562316895
			],
			"type":"VEC3"
		},
		{
			"bufferView":54,
			"componentType":5126,
			"count":30435,
			"type":"VEC3"
		},
		{
			"bufferView":55,
			"componentType":5126,
			"count":30435,
			"type":"VEC2"
		},
		{
			"bufferView":56,
			"componentType":5126,
			"count":30435,
			"type":"VEC2"
		},
		{
			"bufferView":57,
			"componentType":5126,
			"count":30435,
			"type":"VEC2"
		},
		{
			"bufferView":58,
			"componentType":5126,
			"count":40190,
			"max":[
				1.2113685607910156,
				1.4362577199935913,
				1.6413488388061523
			],
			"min":[
				-1.1923973560333252,
				0,
				-1.8445188999176025
			],
			"type":"VEC3"
		},
		{
			"bufferView":59,
			"componentType":5126,
			"count":40190,
			"type":"VEC3"
		},
		{
			"bufferView":60,
			"componentType":5126,
			"count":40190,
			"type":"VEC2"
		},
		{
			"bufferView":61,
			"componentType":5126,
			"count":40190,
			"type":"VEC2"
		},
		{
			"bufferView":62,
			"componentType":5126,
			"count":40190,
			"type":"VEC2"
		},
		{
			"bufferView":63,
			"componentType":5126,
			"count":23422,
			"max":[
				2.2562036514282227,
				6.362817287445068,
				1.2115529775619507
			],
			"min":[
				-2.2030868530273438,
				0.0011310509871691465,
				-1.3532994985580444
			],
			"type":"VEC3"
		},
		{
			"bufferView":64,
			"componentType":5126,
			"count":23422,
			"type":"VEC3"
		},
		{
			"bufferView":65,
			"componentType":5126,
			"count":23422,
			"type":"VEC2"
		},
		{
			"bufferView":66,
			"componentType":5126,
			"count":23422,
			"type":"VEC2"
		},
		{
			"bufferView":67,
			"componentType":5126,
			"count":23422,
			"type":"VEC2"
		},
		{
			"bufferView":68,
			"componentType":5123,
			"count":25944,
			"type":"SCALAR"
		},
		{
			"bufferView":69,
			"componentType":5126,
			"count":23422,
			"max":[
				2.2562036514282227,
				6.362817287445068,
				1.2115529775619507
			],
			"min":[
				-2.2030868530273438,
				0.0011310509871691465,
				-1.3532994985580444
			],
			"type":"VEC3"
		},
		{
			"bufferView":70,
			"componentType":5126,
			"count":23422,
			"type":"VEC3"
		},
		{
			"bufferView":71,
			"componentType":5126,
			"count":23422,
			"type":"VEC2"
		},
		{
			"bufferView":72,
			"componentType":5126,
			"count":23422,
			"type":"VEC2"
		},
		{
			"bufferView":73,
			"componentType":5126,
			"count":23422,
			"type":"VEC2"
		},
		{
			"bufferView":74,
			"componentType":5126,
			"count":37318,
			"max":[
				3.7391488552093506,
				3.8202483654022217,
				2.96444034576416
			],
			"min":[
				-3.701791524887085,
				0.0018959959270432591,
				-4.256781101226807
			],
			"type":"VEC3"
		},
		{
			"bufferView":75,
			"componentType":5126,
			"count":37318,
			"type":"VEC3"
		},
		{
			"bufferView":76,
			"componentType":5126,
			"count":37318,
			"type":"VEC2"
		},
		{
			"bufferView":77,
			"componentType":5126,
			"count":37318,
			"type":"VEC2"
		},
		{
			"bufferView":78,
			"componentType":5126,
			"count":37318,
			"type":"VEC2"
		},
		{
			"bufferView":79,
			"componentType":5123,
			"count":83934,
			"type":"SCALAR"
		},
		{
			"bufferView":80,
			"componentType":5126,
			"count":30435,
			"max":[
				1.957209825515747,
				6.833019256591797,
				1.2713093757629395
			],
			"min":[
				-1.7762260437011719,
				-0.0030071630608290434,
				-1.4570393562316895
			],
			"type":"VEC3"
		},
		{
			"bufferView":81,
			"componentType":5126,
			"count":30435,
			"type":"VEC3"
		},
		{
			"bufferView":82,
			"componentType":5126,
			"count":30435,
			"type":"VEC2"
		},
		{
			"bufferView":83,
			"componentType":5126,
			"count":30435,
			"type":"VEC2"
		},
		{
			"bufferView":84,
			"componentType":5126,
			"count":30435,
			"type":"VEC2"
		},
		{
			"bufferView":85,
			"componentType":5126,
			"count":17681,
			"max":[
				4.770145416259766,
				1.8506132364273071,
				-1.8775205612182617
			],
			"min":[
				-1.3563984632492065,
				0.00614566495642066,
				-18.098630905151367
			],
			"type":"VEC3"
		},
		{
			"bufferView":86,
			"componentType":5126,
			"count":17681,
			"type":"VEC3"
		},
		{
			"bufferView":87,
			"componentType":5126,
			"count":17681,
			"type":"VEC2"
		},
		{
			"bufferView":88,
			"componentType":5126,
			"count":17681,
			"type":"VEC2"
		},
		{
			"bufferView":89,
			"componentType":5126,
			"count":17681,
			"type":"VEC2"
		},
		{
			"bufferView":90,
			"componentType":5123,
			"count":19494,
			"type":"SCALAR"
		},
		{
			"bufferView":91,
			"componentType":5126,
			"count":29232,
			"max":[
				2.0433332920074463,
				6.181893825531006,
				2.348318099975586
			],
			"min":[
				-2.87558913230896,
				-0.005274566821753979,
				-2.7560768127441406
			],
			"type":"VEC3"
		},
		{
			"bufferView":92,
			"componentType":5126,
			"count":29232,
			"type":"VEC3"
		},
		{
			"bufferView":93,
			"componentType":5126,
			"count":29232,
			"type":"VEC2"
		},
		{
			"bufferView":94,
			"componentType":5126,
			"count":29232,
			"type":"VEC2"
		},
		{
			"bufferView":95,
			"componentType":5126,
			"count":29232,
			"type":"VEC2"
		},
		{
			"bufferView":96,
			"componentType":5123,
			"count":29994,
			"type":"SCALAR"
		},
		{
			"bufferView":97,
			"componentType":5126,
			"count":37318,
			"max":[
				3.7391488552093506,
				3.8202483654022217,
				2.96444034576416
			],
			"min":[
				-3.701791524887085,
				0.0018959959270432591,
				-4.256781101226807
			],
			"type":"VEC3"
		},
		{
			"bufferView":98,
			"componentType":5126,
			"count":37318,
			"type":"VEC3"
		},
		{
			"bufferView":99,
			"componentType":5126,
			"count":37318,
			"type":"VEC2"
		},
		{
			"bufferView":100,
			"componentType":5126,
			"count":37318,
			"type":"VEC2"
		},
		{
			"bufferView":101,
			"componentType":5126,
			"count":37318,
			"type":"VEC2"
		},
		{
			"bufferView":102,
			"componentType":5126,
			"count":23422,
			"max":[
				2.2562036514282227,
				6.362817287445068,
				1.2115529775619507
			],
			"min":[
				-2.2030868530273438,
				0.0011310509871691465,
				-1.3532994985580444
			],
			"type":"VEC3"
		},
		{
			"bufferView":103,
			"componentType":5126,
			"count":23422,
			"type":"VEC3"
		},
		{
			"bufferView":104,
			"componentType":5126,
			"count":23422,
			"type":"VEC2"
		},
		{
			"bufferView":105,
			"componentType":5126,
			"count":23422,
			"type":"VEC2"
		},
		{
			"bufferView":106,
			"componentType":5126,
			"count":23422,
			"type":"VEC2"
		},
		{
			"bufferView":107,
			"componentType":5126,
			"count":30435,
			"max":[
				1.957209825515747,
				6.833019256591797,
				1.2713093757629395
			],
			"min":[
				-1.7762260437011719,
				-0.0030071630608290434,
				-1.4570393562316895
			],
			"type":"VEC3"
		},
		{
			"bufferView":108,
			"componentType":5126,
			"count":30435,
			"type":"VEC3"
		},
		{
			"bufferView":109,
			"componentType":5126,
			"count":30435,
			"type":"VEC2"
		},
		{
			"bufferView":110,
			"componentType":5126,
			"count":30435,
			"type":"VEC2"
		},
		{
			"bufferView":111,
			"componentType":5126,
			"count":30435,
			"type":"VEC2"
		},
		{
			"bufferView":112,
			"componentType":5126,
			"count":40190,
			"max":[
				1.2113685607910156,
				1.4362577199935913,
				1.6413488388061523
			],
			"min":[
				-1.1923973560333252,
				0,
				-1.8445188999176025
			],
			"type":"VEC3"
		},
		{
			"bufferView":113,
			"componentType":5126,
			"count":40190,
			"type":"VEC3"
		},
		{
			"bufferView":114,
			"componentType":5126,
			"count":40190,
			"type":"VEC2"
		},
		{
			"bufferView":115,
			"componentType":5126,
			"count":40190,
			"type":"VEC2"
		},
		{
			"bufferView":116,
			"componentType":5126,
			"count":40190,
			"type":"VEC2"
		},
		{
			"bufferView":117,
			"componentType":5126,
			"count":9328,
			"max":[
				0.383568674325943,
				0.25366103649139404,
				0.2635858356952667
			],
			"min":[
				-0.359592080116272,
				-0.00019121418881695718,
				-0.16702820360660553
			],
			"type":"VEC3"
		},
		{
			"bufferView":118,
			"componentType":5126,
			"count":9328,
			"type":"VEC3"
		},
		{
			"bufferView":119,
			"componentType":5126,
			"count":9328,
			"type":"VEC2"
		},
		{
			"bufferView":120,
			"componentType":5126,
			"count":9328,
			"type":"VEC2"
		},
		{
			"bufferView":121,
			"componentType":5126,
			"count":9328,
			"type":"VEC2"
		},
		{
			"bufferView":122,
			"componentType":5123,
			"count":13674,
			"type":"SCALAR"
		},
		{
			"bufferView":123,
			"componentType":5126,
			"count":5906,
			"max":[
				0.8092723488807678,
				1.8511747121810913,
				2.376600503921509
			],
			"min":[
				-1.2958941459655762,
				-0.00042222184129059315,
				-3.530000686645508
			],
			"type":"VEC3"
		},
		{
			"bufferView":124,
			"componentType":5126,
			"count":5906,
			"type":"VEC3"
		},
		{
			"bufferView":125,
			"componentType":5126,
			"count":5906,
			"type":"VEC2"
		},
		{
			"bufferView":126,
			"componentType":5126,
			"count":5906,
			"type":"VEC2"
		},
		{
			"bufferView":127,
			"componentType":5126,
			"count":5906,
			"type":"VEC2"
		},
		{
			"bufferView":128,
			"componentType":5123,
			"count":15000,
			"type":"SCALAR"
		},
		{
			"bufferView":129,
			"componentType":5126,
			"count":3576,
			"max":[
				0.2727481722831726,
				0.1967364400625229,
				0.2966068685054779
			],
			"min":[
				-0.23011520504951477,
				-1.3869142094335984e-05,
				-0.3669472634792328
			],
			"type":"VEC3"
		},
		{
			"bufferView":130,
			"componentType":5126,
			"count":3576,
			"type":"VEC3"
		},
		{
			"bufferView":131,
			"componentType":5126,
			"count":3576,
			"type":"VEC2"
		},
		{
			"bufferView":132,
			"componentType":5126,
			"count":3576,
			"type":"VEC2"
		},
		{
			"bufferView":133,
			"componentType":5126,
			"count":3576,
			"type":"VEC2"
		},
		{
			"bufferView":134,
			"componentType":5123,
			"count":5424,
			"type":"SCALAR"
		},
		{
			"bufferView":135,
			"componentType":5126,
			"count":3576,
			"max":[
				0.2727481722831726,
				0.1967364400625229,
				0.2966068685054779
			],
			"min":[
				-0.23011520504951477,
				-1.3869142094335984e-05,
				-0.3669472634792328
			],
			"type":"VEC3"
		},
		{
			"bufferView":136,
			"componentType":5126,
			"count":3576,
			"type":"VEC3"
		},
		{
			"bufferView":137,
			"componentType":5126,
			"count":3576,
			"type":"VEC2"
		},
		{
			"bufferView":138,
			"componentType":5126,
			"count":3576,
			"type":"VEC2"
		},
		{
			"bufferView":139,
			"componentType":5126,
			"count":3576,
			"type":"VEC2"
		},
		{
			"bufferView":140,
			"componentType":5126,
			"count":3865,
			"max":[
				0.13860636949539185,
				0.25298941135406494,
				0.2545311152935028
			],
			"min":[
				-0.13877899944782257,
				0.0009526040521450341,
				-0.28999167680740356
			],
			"type":"VEC3"
		},
		{
			"bufferView":141,
			"componentType":5126,
			"count":3865,
			"type":"VEC3"
		},
		{
			"bufferView":142,
			"componentType":5126,
			"count":3865,
			"type":"VEC2"
		},
		{
			"bufferView":143,
			"componentType":5126,
			"count":3865,
			"type":"VEC2"
		},
		{
			"bufferView":144,
			"componentType":5126,
			"count":3865,
			"type":"VEC2"
		},
		{
			"bufferView":145,
			"componentType":5123,
			"count":5826,
			"type":"SCALAR"
		},
		{
			"bufferView":146,
			"componentType":5126,
			"count":3864,
			"max":[
				0.1691703349351883,
				0.3087758719921112,
				0.3106575608253479
			],
			"min":[
				-0.1693810373544693,
				0.0011626619379967451,
				-0.3539374768733978
			],
			"type":"VEC3"
		},
		{
			"bufferView":147,
			"componentType":5126,
			"count":3864,
			"type":"VEC3"
		},
		{
			"bufferView":148,
			"componentType":5126,
			"count":3864,
			"type":"VEC2"
		},
		{
			"bufferView":149,
			"componentType":5126,
			"count":3864,
			"type":"VEC2"
		},
		{
			"bufferView":150,
			"componentType":5126,
			"count":3864,
			"type":"VEC2"
		},
		{
			"bufferView":151,
			"componentType":5123,
			"count":5826,
			"type":"SCALAR"
		},
		{
			"bufferView":152,
			"componentType":5126,
			"count":1093,
			"max":[
				8.29504108428955,
				41.47520446777344,
				0.08324924111366272
			],
			"min":[
				-8.29504108428955,
				-8.29504108428955,
				0
			],
			"type":"VEC3"
		},
		{
			"bufferView":153,
			"componentType":5126,
			"count":1093,
			"type":"VEC3"
		},
		{
			"bufferView":154,
			"componentType":5126,
			"count":1093,
			"type":"VEC2"
		},
		{
			"bufferView":155,
			"componentType":5123,
			"count":2079,
			"type":"SCALAR"
		},
		{
			"bufferView":156,
			"componentType":5126,
			"count":216,
			"max":[
				1.0047798156738281,
				1.5591113567352295,
				0.8474482297897339
			],
			"min":[
				-1,
				-1.659297227859497,
				-0.11078241467475891
			],
			"type":"VEC3"
		},
		{
			"bufferView":157,
			"componentType":5126,
			"count":216,
			"type":"VEC3"
		},
		{
			"bufferView":158,
			"componentType":5126,
			"count":216,
			"type":"VEC2"
		},
		{
			"bufferView":159,
			"componentType":5126,
			"count":216,
			"type":"VEC2"
		},
		{
			"bufferView":160,
			"componentType":5123,
			"count":324,
			"type":"SCALAR"
		},
		{
			"bufferView":161,
			"componentType":5126,
			"count":65552,
			"max":[
				3.974869728088379,
				3.947840690612793,
				4.131242752075195
			],
			"min":[
				-3.953021287918091,
				-3.9675285816192627,
				1.7331852912902832
			],
			"type":"VEC3"
		},
		{
			"bufferView":162,
			"componentType":5126,
			"count":65552,
			"type":"VEC3"
		},
		{
			"bufferView":163,
			"componentType":5126,
			"count":65552,
			"type":"VEC2"
		},
		{
			"bufferView":164,
			"componentType":5126,
			"count":65552,
			"type":"VEC2"
		},
		{
			"bufferView":165,
			"componentType":5126,
			"count":65552,
			"type":"VEC2"
		},
		{
			"bufferView":166,
			"componentType":5125,
			"count":297906,
			"type":"SCALAR"
		},
		{
			"bufferView":167,
			"componentType":5126,
			"count":40979,
			"max":[
				3.805783748626709,
				3.8051793575286865,
				4.027876377105713
			],
			"min":[
				-3.804126501083374,
				-3.8051793575286865,
				3.024963855743408
			],
			"type":"VEC3"
		},
		{
			"bufferView":168,
			"componentType":5126,
			"count":40979,
			"type":"VEC3"
		},
		{
			"bufferView":169,
			"componentType":5126,
			"count":40979,
			"type":"VEC2"
		},
		{
			"bufferView":170,
			"componentType":5126,
			"count":40979,
			"type":"VEC2"
		},
		{
			"bufferView":171,
			"componentType":5126,
			"count":40979,
			"type":"VEC2"
		},
		{
			"bufferView":172,
			"componentType":5123,
			"count":185694,
			"type":"SCALAR"
		}
	],
	"bufferViews":[
		{
			"buffer":0,
			"byteLength":420192,
			"byteOffset":0,
			"target":34962
		},
		{
			"buffer":0,
			"byteLength":420192,
			"byteOffset":420192,
			"target":34962
		},
		{
			"buffer":0,
			"byteLength":280128,
			"byteOffset":840384,
			"target":34962
		},
		{
			"buffer":0,
			"byteLength":280128,
			"byteOffset":1120512,
			"target":34962
		},
		{
			"buffer":0,
			"byteLength":280128,
			"byteOffset":1400640,
			"target":34962
		},
		{
			"buffer":0,
			"byteLength":70032,
			"byteOffset":1680768,
			"target":34963
		},
		{
			"buffer":0,
			"byteLength":295344,
			"byteOffset":1750800,
			"target":34962
		},
		{
			"buffer":0,
			"byteLength":295344,
			"byteOffset":2046144,
			"target":34962
		},
		{
			"buffer":0,
			"byteLength":196896,
			"byteOffset":2341488,
			"target":34962
		},
		{
			"buffer":0,
			"byteLength":196896,
			"byteOffset":2538384,
			"target":34962
		},
		{
			"buffer":0,
			"byteLength":196896,
			"byteOffset":2735280,
			"target":34962
		},
		{
			"buffer":0,
			"byteLength":51660,
			"byteOffset":2932176,
			"target":34963
		},
		{
			"buffer":0,
			"byteLength":350868,
			"byteOffset":2983836,
			"target":34962
		},
		{
			"buffer":0,
			"byteLength":350868,
			"byteOffset":3334704,
			"target":34962
		},
		{
			"buffer":0,
			"byteLength":233912,
			"byteOffset":3685572,
			"target":34962
		},
		{
			"buffer":0,
			"byteLength":233912,
			"byteOffset":3919484,
			"target":34962
		},
		{
			"buffer":0,
			"byteLength":233912,
			"byteOffset":4153396,
			"target":34962
		},
		{
			"buffer":0,
			"byteLength":59988,
			"byteOffset":4387308,
			"target":34963
		},
		{
			"buffer":0,
			"byteLength":565920,
			"byteOffset":4447296,
			"target":34962
		},
		{
			"buffer":0,
			"byteLength":565920,
			"byteOffset":5013216,
			"target":34962
		},
		{
			"buffer":0,
			"byteLength":377280,
			"byteOffset":5579136,
			"target":34962
		},
		{
			"buffer":0,
			"byteLength":377280,
			"byteOffset":5956416,
			"target":34962
		},
		{
			"buffer":0,
			"byteLength":377280,
			"byteOffset":6333696,
			"target":34962
		},
		{
			"buffer":0,
			"byteLength":98448,
			"byteOffset":6710976,
			"target":34963
		},
		{
			"buffer":0,
			"byteLength":472476,
			"byteOffset":6809424,
			"target":34962
		},
		{
			"buffer":0,
			"byteLength":472476,
			"byteOffset":7281900,
			"target":34962
		},
		{
			"buffer":0,
			"byteLength":314984,
			"byteOffset":7754376,
			"target":34962
		},
		{
			"buffer":0,
			"byteLength":314984,
			"byteOffset":8069360,
			"target":34962
		},
		{
			"buffer":0,
			"byteLength":314984,
			"byteOffset":8384344,
			"target":34962
		},
		{
			"buffer":0,
			"byteLength":174192,
			"byteOffset":8699328,
			"target":34963
		},
		{
			"buffer":0,
			"byteLength":482280,
			"byteOffset":8873520,
			"target":34962
		},
		{
			"buffer":0,
			"byteLength":482280,
			"byteOffset":9355800,
			"target":34962
		},
		{
			"buffer":0,
			"byteLength":321520,
			"byteOffset":9838080,
			"target":34962
		},
		{
			"buffer":0,
			"byteLength":321520,
			"byteOffset":10159600,
			"target":34962
		},
		{
			"buffer":0,
			"byteLength":321520,
			"byteOffset":10481120,
			"target":34962
		},
		{
			"buffer":0,
			"byteLength":299364,
			"byteOffset":10802640,
			"target":34963
		},
		{
			"buffer":0,
			"byteLength":472548,
			"byteOffset":11102004,
			"target":34962
		},
		{
			"buffer":0,
			"byteLength":472548,
			"byteOffset":11574552,
			"target":34962
		},
		{
			"buffer":0,
			"byteLength":315032,
			"byteOffset":12047100,
			"target":34962
		},
		{
			"buffer":0,
			"byteLength":315032,
			"byteOffset":12362132,
			"target":34962
		},
		{
			"buffer":0,
			"byteLength":315032,
			"byteOffset":12677164,
			"target":34962
		},
		{
			"buffer":0,
			"byteLength":174192,
			"byteOffset":12992196,
			"target":34963
		},
		{
			"buffer":0,
			"byteLength":420192,
			"byteOffset":13166388,
			"target":34962
		},
		{
			"buffer":0,
			"byteLength":420192,
			"byteOffset":13586580,
			"target":34962
		},
		{
			"buffer":0,
			"byteLength":280128,
			"byteOffset":14006772,
			"target":34962
		},
		{
			"buffer":0,
			"byteLength":280128,
			"byteOffset":14286900,
			"target":34962
		},
		{
			"buffer":0,
			"byteLength":280128,
			"byteOffset":14567028,
			"target":34962
		},
		{
			"buffer":0,
			"byteLength":365220,
			"byteOffset":14847156,
			"target":34962
		},
		{
			"buffer":0,
			"byteLength":365220,
			"byteOffset":15212376,
			"target":34962
		},
		{
			"buffer":0,
			"byteLength":243480,
			"byteOffset":15577596,
			"target":34962
		},
		{
			"buffer":0,
			"byteLength":243480,
			"byteOffset":15821076,
			"target":34962
		},
		{
			"buffer":0,
			"byteLength":243480,
			"byteOffset":16064556,
			"target":34962
		},
		{
			"buffer":0,
			"byteLength":63276,
			"byteOffset":16308036,
			"target":34963
		},
		{
			"buffer":0,
			"byteLength":365220,
			"byteOffset":16371312,
			"target":34962
		},
		{
			"buffer":0,
			"byteLength":365220,
			"byteOffset":16736532,
			"target":34962
		},
		{
			"buffer":0,
			"byteLength":243480,
			"byteOffset":17101752,
			"target":34962
		},
		{
			"buffer":0,
			"byteLength":243480,
			"byteOffset":17345232,
			"target":34962
		},
		{
			"buffer":0,
			"byteLength":243480,
			"byteOffset":17588712,
			"target":34962
		},
		{
			"buffer":0,
			"byteLength":482280,
			"byteOffset":17832192,
			"target":34962
		},
		{
			"buffer":0,
			"byteLength":482280,
			"byteOffset":18314472,
			"target":34962
		},
		{
			"buffer":0,
			"byteLength":321520,
			"byteOffset":18796752,
			"target":34962
		},
		{
			"buffer":0,
			"byteLength":321520,
			"byteOffset":19118272,
			"target":34962
		},
		{
			"buffer":0,
			"byteLength":321520,
			"byteOffset":19439792,
			"target":34962
		},
		{
			"buffer":0,
			"byteLength":281064,
			"byteOffset":19761312,
			"target":34962
		},
		{
			"buffer":0,
			"byteLength":281064,
			"byteOffset":20042376,
			"target":34962
		},
		{
			"buffer":0,
			"byteLength":187376,
			"byteOffset":20323440,
			"target":34962
		},
		{
			"buffer":0,
			"byteLength":187376,
			"byteOffset":20510816,
			"target":34962
		},
		{
			"buffer":0,
			"byteLength":187376,
			"byteOffset":20698192,
			"target":34962
		},
		{
			"buffer":0,
			"byteLength":51888,
			"byteOffset":20885568,
			"target":34963
		},
		{
			"buffer":0,
			"byteLength":281064,
			"byteOffset":20937456,
			"target":34962
		},
		{
			"buffer":0,
			"byteLength":281064,
			"byteOffset":21218520,
			"target":34962
		},
		{
			"buffer":0,
			"byteLength":187376,
			"byteOffset":21499584,
			"target":34962
		},
		{
			"buffer":0,
			"byteLength":187376,
			"byteOffset":21686960,
			"target":34962
		},
		{
			"buffer":0,
			"byteLength":187376,
			"byteOffset":21874336,
			"target":34962
		},
		{
			"buffer":0,
			"byteLength":447816,
			"byteOffset":22061712,
			"target":34962
		},
		{
			"buffer":0,
			"byteLength":447816,
			"byteOffset":22509528,
			"target":34962
		},
		{
			"buffer":0,
			"byteLength":298544,
			"byteOffset":22957344,
			"target":34962
		},
		{
			"buffer":0,
			"byteLength":298544,
			"byteOffset":23255888,
			"target":34962
		},
		{
			"buffer":0,
			"byteLength":298544,
			"byteOffset":23554432,
			"target":34962
		},
		{
			"buffer":0,
			"byteLength":167868,
			"byteOffset":23852976,
			"target":34963
		},
		{
			"buffer":0,
			"byteLength":365220,
			"byteOffset":24020844,
			"target":34962
		},
		{
			"buffer":0,
			"byteLength":365220,
			"byteOffset":24386064,
			"target":34962
		},
		{
			"buffer":0,
			"byteLength":243480,
			"byteOffset":24751284,
			"target":34962
		},
		{
			"buffer":0,
			"byteLength":243480,
			"byteOffset":24994764,
			"target":34962
		},
		{
			"buffer":0,
			"byteLength":243480,
			"byteOffset":25238244,
			"target":34962
		},
		{
			"buffer":0,
			"byteLength":212172,
			"byteOffset":25481724,
			"target":34962
		},
		{
			"buffer":0,
			"byteLength":212172,
			"byteOffset":25693896,
			"target":34962
		},
		{
			"buffer":0,
			"byteLength":141448,
			"byteOffset":25906068,
			"target":34962
		},
		{
			"buffer":0,
			"byteLength":141448,
			"byteOffset":26047516,
			"target":34962
		},
		{
			"buffer":0,
			"byteLength":141448,
			"byteOffset":26188964,
			"target":34962
		},
		{
			"buffer":0,
			"byteLength":38988,
			"byteOffset":26330412,
			"target":34963
		},
		{
			"buffer":0,
			"byteLength":350784,
			"byteOffset":26369400,
			"target":34962
		},
		{
			"buffer":0,
			"byteLength":350784,
			"byteOffset":26720184,
			"target":34962
		},
		{
			"buffer":0,
			"byteLength":233856,
			"byteOffset":27070968,
			"target":34962
		},
		{
			"buffer":0,
			"byteLength":233856,
			"byteOffset":27304824,
			"target":34962
		},
		{
			"buffer":0,
			"byteLength":233856,
			"byteOffset":27538680,
			"target":34962
		},
		{
			"buffer":0,
			"byteLength":59988,
			"byteOffset":27772536,
			"target":34963
		},
		{
			"buffer":0,
			"byteLength":447816,
			"byteOffset":27832524,
			"target":34962
		},
		{
			"buffer":0,
			"byteLength":447816,
			"byteOffset":28280340,
			"target":34962
		},
		{
			"buffer":0,
			"byteLength":298544,
			"byteOffset":28728156,
			"target":34962
		},
		{
			"buffer":0,
			"byteLength":298544,
			"byteOffset":29026700,
			"target":34962
		},
		{
			"buffer":0,
			"byteLength":298544,
			"byteOffset":29325244,
			"target":34962
		},
		{
			"buffer":0,
			"byteLength":281064,
			"byteOffset":29623788,
			"target":34962
		},
		{
			"buffer":0,
			"byteLength":281064,
			"byteOffset":29904852,
			"target":34962
		},
		{
			"buffer":0,
			"byteLength":187376,
			"byteOffset":30185916,
			"target":34962
		},
		{
			"buffer":0,
			"byteLength":187376,
			"byteOffset":30373292,
			"target":34962
		},
		{
			"buffer":0,
			"byteLength":187376,
			"byteOffset":30560668,
			"target":34962
		},
		{
			"buffer":0,
			"byteLength":365220,
			"byteOffset":30748044,
			"target":34962
		},
		{
			"buffer":0,
			"byteLength":365220,
			"byteOffset":31113264,
			"target":34962
		},
		{
			"buffer":0,
			"byteLength":243480,
			"byteOffset":31478484,
			"target":34962
		},
		{
			"buffer":0,
			"byteLength":243480,
			"byteOffset":31721964,
			"target":34962
		},
		{
			"buffer":0,
			"byteLength":243480,
			"byteOffset":31965444,
			"target":34962
		},
		{
			"buffer":0,
			"byteLength":482280,
			"byteOffset":32208924,
			"target":34962
		},
		{
			"buffer":0,
			"byteLength":482280,
			"byteOffset":32691204,
			"target":34962
		},
		{
			"buffer":0,
			"byteLength":321520,
			"byteOffset":33173484,
			"target":34962
		},
		{
			"buffer":0,
			"byteLength":321520,
			"byteOffset":33495004,
			"target":34962
		},
		{
			"buffer":0,
			"byteLength":321520,
			"byteOffset":33816524,
			"target":34962
		},
		{
			"buffer":0,
			"byteLength":111936,
			"byteOffset":34138044,
			"target":34962
		},
		{
			"buffer":0,
			"byteLength":111936,
			"byteOffset":34249980,
			"target":34962
		},
		{
			"buffer":0,
			"byteLength":74624,
			"byteOffset":34361916,
			"target":34962
		},
		{
			"buffer":0,
			"byteLength":74624,
			"byteOffset":34436540,
			"target":34962
		},
		{
			"buffer":0,
			"byteLength":74624,
			"byteOffset":34511164,
			"target":34962
		},
		{
			"buffer":0,
			"byteLength":27348,
			"byteOffset":34585788,
			"target":34963
		},
		{
			"buffer":0,
			"byteLength":70872,
			"byteOffset":34613136,
			"target":34962
		},
		{
			"buffer":0,
			"byteLength":70872,
			"byteOffset":34684008,
			"target":34962
		},
		{
			"buffer":0,
			"byteLength":47248,
			"byteOffset":34754880,
			"target":34962
		},
		{
			"buffer":0,
			"byteLength":47248,
			"byteOffset":34802128,
			"target":34962
		},
		{
			"buffer":0,
			"byteLength":47248,
			"byteOffset":34849376,
			"target":34962
		},
		{
			"buffer":0,
			"byteLength":30000,
			"byteOffset":34896624,
			"target":34963
		},
		{
			"buffer":0,
			"byteLength":42912,
			"byteOffset":34926624,
			"target":34962
		},
		{
			"buffer":0,
			"byteLength":42912,
			"byteOffset":34969536,
			"target":34962
		},
		{
			"buffer":0,
			"byteLength":28608,
			"byteOffset":35012448,
			"target":34962
		},
		{
			"buffer":0,
			"byteLength":28608,
			"byteOffset":35041056,
			"target":34962
		},
		{
			"buffer":0,
			"byteLength":28608,
			"byteOffset":35069664,
			"target":34962
		},
		{
			"buffer":0,
			"byteLength":10848,
			"byteOffset":35098272,
			"target":34963
		},
		{
			"buffer":0,
			"byteLength":42912,
			"byteOffset":35109120,
			"target":34962
		},
		{
			"buffer":0,
			"byteLength":42912,
			"byteOffset":35152032,
			"target":34962
		},
		{
			"buffer":0,
			"byteLength":28608,
			"byteOffset":35194944,
			"target":34962
		},
		{
			"buffer":0,
			"byteLength":28608,
			"byteOffset":35223552,
			"target":34962
		},
		{
			"buffer":0,
			"byteLength":28608,
			"byteOffset":35252160,
			"target":34962
		},
		{
			"buffer":0,
			"byteLength":46380,
			"byteOffset":35280768,
			"target":34962
		},
		{
			"buffer":0,
			"byteLength":46380,
			"byteOffset":35327148,
			"target":34962
		},
		{
			"buffer":0,
			"byteLength":30920,
			"byteOffset":35373528,
			"target":34962
		},
		{
			"buffer":0,
			"byteLength":30920,
			"byteOffset":35404448,
			"target":34962
		},
		{
			"buffer":0,
			"byteLength":30920,
			"byteOffset":35435368,
			"target":34962
		},
		{
			"buffer":0,
			"byteLength":11652,
			"byteOffset":35466288,
			"target":34963
		},
		{
			"buffer":0,
			"byteLength":46368,
			"byteOffset":35477940,
			"target":34962
		},
		{
			"buffer":0,
			"byteLength":46368,
			"byteOffset":35524308,
			"target":34962
		},
		{
			"buffer":0,
			"byteLength":30912,
			"byteOffset":35570676,
			"target":34962
		},
		{
			"buffer":0,
			"byteLength":30912,
			"byteOffset":35601588,
			"target":34962
		},
		{
			"buffer":0,
			"byteLength":30912,
			"byteOffset":35632500,
			"target":34962
		},
		{
			"buffer":0,
			"byteLength":11652,
			"byteOffset":35663412,
			"target":34963
		},
		{
			"buffer":0,
			"byteLength":13116,
			"byteOffset":35675064,
			"target":34962
		},
		{
			"buffer":0,
			"byteLength":13116,
			"byteOffset":35688180,
			"target":34962
		},
		{
			"buffer":0,
			"byteLength":8744,
			"byteOffset":35701296,
			"target":34962
		},
		{
			"buffer":0,
			"byteLength":4158,
			"byteOffset":35710040,
			"target":34963
		},
		{
			"buffer":0,
			"byteLength":2592,
			"byteOffset":35714200,
			"target":34962
		},
		{
			"buffer":0,
			"byteLength":2592,
			"byteOffset":35716792,
			"target":34962
		},
		{
			"buffer":0,
			"byteLength":1728,
			"byteOffset":35719384,
			"target":34962
		},
		{
			"buffer":0,
			"byteLength":1728,
			"byteOffset":35721112,
			"target":34962
		},
		{
			"buffer":0,
			"byteLength":648,
			"byteOffset":35722840,
			"target":34963
		},
		{
			"buffer":0,
			"byteLength":786624,
			"byteOffset":35723488,
			"target":34962
		},
		{
			"buffer":0,
			"byteLength":786624,
			"byteOffset":36510112,
			"target":34962
		},
		{
			"buffer":0,
			"byteLength":524416,
			"byteOffset":37296736,
			"target":34962
		},
		{
			"buffer":0,
			"byteLength":524416,
			"byteOffset":37821152,
			"target":34962
		},
		{
			"buffer":0,
			"byteLength":524416,
			"byteOffset":38345568,
			"target":34962
		},
		{
			"buffer":0,
			"byteLength":1191624,
			"byteOffset":38869984,
			"target":34963
		},
		{
			"buffer":0,
			"byteLength":491748,
			"byteOffset":40061608,
			"target":34962
		},
		{
			"buffer":0,
			"byteLength":491748,
			"byteOffset":40553356,
			"target":34962
		},
		{
			"buffer":0,
			"byteLength":327832,
			"byteOffset":41045104,
			"target":34962
		},
		{
			"buffer":0,
			"byteLength":327832,
			"byteOffset":41372936,
			"target":34962
		},
		{
			"buffer":0,
			"byteLength":327832,
			"byteOffset":41700768,
			"target":34962
		},
		{
			"buffer":0,
			"byteLength":371388,
			"byteOffset":42028600,
			"target":34963
		}
	],
	"samplers":[
		{
			"magFilter":9729,
			"minFilter":9987
		}
	],
	"buffers":[
		{
			"byteLength":42399988,
			"uri":"arena.bin"
		}
	]
}
